<?xml version="1.0" encoding="utf-8"?><!DOCTYPE svg PUBLIC "-//W3C//DTD SVG 1.1//EN" "http://www.w3.org/Graphics/SVG/1.1/DTD/svg11.dtd"><svg xmlns="http://www.w3.org/2000/svg" xmlns:xlink="http://www.w3.org/1999/xlink"><symbol viewBox="0 0 16 16" id="aside-star" xmlns="http://www.w3.org/2000/svg">
    <g id="aSVGRepo_bgCarrier" stroke-width="0"/>
    <g id="aSVGRepo_tracerCarrier" stroke-linecap="round" stroke-linejoin="round"/>
    <g id="aSVGRepo_iconCarrier">
        <path d="M9.00001 0H7.00001L5.51292 4.57681L0.700554 4.57682L0.0825195 6.47893L3.97581 9.30756L2.48873 13.8843L4.10677 15.0599L8.00002 12.2313L11.8933 15.0599L13.5113 13.8843L12.0242 9.30754L15.9175 6.47892L15.2994 4.57681L10.4871 4.57681L9.00001 0Z"/>
    </g>
</symbol><symbol viewBox="0 0 24 24" id="bulp" xmlns="http://www.w3.org/2000/svg">
    <g id="bSVGRepo_bgCarrier" stroke-width="0"/>
    <g id="bSVGRepo_tracerCarrier" stroke-linecap="round" stroke-linejoin="round"/>
    <g id="bSVGRepo_iconCarrier">
        <path d="M14.627 14.82L14.3833 14.3834L14.627 14.82ZM9.6556 16.5166L9.16239 16.5988L9.6556 16.5166ZM14.3443 16.5166L13.8511 16.4345V16.4345L14.3443 16.5166ZM18.1285 13.8312C17.9317 13.6375 17.6152 13.6399 17.4215 13.8367C17.2277 14.0335 17.2302 14.3501 17.427 14.5438L18.1285 13.8312ZM18.3159 15.4188C18.5127 15.6125 18.8293 15.6101 19.023 15.4133C19.2167 15.2165 19.2142 14.8999 19.0174 14.7062L18.3159 15.4188ZM19.1111 9.75C18.835 9.75 18.6111 9.97386 18.6111 10.25C18.6111 10.5261 18.835 10.75 19.1111 10.75V9.75ZM20 10.75C20.2761 10.75 20.5 10.5261 20.5 10.25C20.5 9.97386 20.2761 9.75 20 9.75V10.75ZM17.8715 5.51867C17.6747 5.71239 17.6722 6.02897 17.8659 6.22576C18.0596 6.42255 18.3762 6.42504 18.573 6.23133L17.8715 5.51867ZM19.4619 5.35633C19.6587 5.16261 19.6612 4.84603 19.4674 4.64924C19.2737 4.45245 18.9571 4.44996 18.7604 4.64367L19.4619 5.35633ZM5.42702 6.23133C5.62381 6.42504 5.94039 6.42255 6.1341 6.22576C6.32782 6.02897 6.32533 5.71239 6.12854 5.51867L5.42702 6.23133ZM5.23965 4.64367C5.04285 4.44996 4.72628 4.45245 4.53256 4.64924C4.33884 4.84603 4.34134 5.16261 4.53813 5.35633L5.23965 4.64367ZM4.88889 10.75C5.16503 10.75 5.38889 10.5261 5.38889 10.25C5.38889 9.97386 5.16503 9.75 4.88889 9.75V10.75ZM4 9.75C3.72386 9.75 3.5 9.97386 3.5 10.25C3.5 10.5261 3.72386 10.75 4 10.75V9.75ZM6.57298 14.5438C6.76977 14.3501 6.77227 14.0335 6.57855 13.8367C6.38483 13.6399 6.06826 13.6375 5.87146 13.8312L6.57298 14.5438ZM4.98257 14.7062C4.78578 14.8999 4.78329 15.2165 4.97701 15.4133C5.17073 15.6101 5.4873 15.6125 5.68409 15.4188L4.98257 14.7062ZM12.8261 7.94806C13.0045 7.7373 12.9783 7.42181 12.7675 7.24338C12.5567 7.06496 12.2413 7.09118 12.0628 7.30194L12.8261 7.94806ZM10.2222 10.25L9.84061 9.92694C9.7148 10.0755 9.68671 10.2837 9.76861 10.4603C9.85051 10.637 10.0275 10.75 10.2222 10.75V10.25ZM13.7778 10.25L14.1594 10.5731C14.2852 10.4245 14.3133 10.2163 14.2314 10.0397C14.1495 9.86303 13.9725 9.75 13.7778 9.75V10.25ZM11.1739 12.5519C10.9955 12.7627 11.0217 13.0782 11.2325 13.2566C11.4433 13.435 11.7587 13.4088 11.9372 13.1981L11.1739 12.5519ZM10.6667 18.5C10.3905 18.5 10.1667 18.7239 10.1667 19C10.1667 19.2761 10.3905 19.5 10.6667 19.5V18.5ZM13.3333 19.5C13.6095 19.5 13.8333 19.2761 13.8333 19C13.8333 18.7239 13.6095 18.5 13.3333 18.5V19.5ZM7.16667 10.25C7.16667 7.63404 9.32317 5.5 12 5.5V4.5C8.78579 4.5 6.16667 7.06697 6.16667 10.25H7.16667ZM12 5.5C14.6768 5.5 16.8333 7.63404 16.8333 10.25H17.8333C17.8333 7.06697 15.2142 4.5 12 4.5V5.5ZM16.8333 10.25C16.8333 12.0181 15.85 13.5647 14.3833 14.3834L14.8708 15.2566C16.6361 14.2711 17.8333 12.4005 17.8333 10.25H16.8333ZM14.3833 14.3834C13.6807 14.7756 12.8679 15 12 15V16C13.0423 16 14.0225 15.7301 14.8708 15.2566L14.3833 14.3834ZM12 15C11.1321 15 10.3193 14.7756 9.61665 14.3834L9.12923 15.2566C9.97752 15.7301 10.9577 16 12 16V15ZM9.61665 14.3834C8.15004 13.5647 7.16667 12.0181 7.16667 10.25H6.16667C6.16667 12.4005 7.36394 14.2711 9.12923 15.2566L9.61665 14.3834ZM10.1488 16.4344L9.86615 14.7378L8.87974 14.9021L9.16239 16.5988L10.1488 16.4344ZM14.1338 14.7378L13.8511 16.4345L14.8375 16.5988L15.1202 14.9022L14.1338 14.7378ZM17.427 14.5438L18.3159 15.4188L19.0174 14.7062L18.1285 13.8312L17.427 14.5438ZM19.1111 10.75H20V9.75H19.1111V10.75ZM18.573 6.23133L19.4619 5.35633L18.7604 4.64367L17.8715 5.51867L18.573 6.23133ZM6.12854 5.51867L5.23965 4.64367L4.53813 5.35633L5.42702 6.23133L6.12854 5.51867ZM4.88889 9.75H4V10.75H4.88889V9.75ZM5.87146 13.8312L4.98257 14.7062L5.68409 15.4188L6.57298 14.5438L5.87146 13.8312ZM12.0628 7.30194L9.84061 9.92694L10.6038 10.5731L12.8261 7.94806L12.0628 7.30194ZM10.2222 10.75H13.7778V9.75H10.2222V10.75ZM13.3962 9.92694L11.1739 12.5519L11.9372 13.1981L14.1594 10.5731L13.3962 9.92694ZM13.4672 16.75H10.5328V17.75H13.4672V16.75ZM10.6667 19.5H13.3333V18.5H10.6667V19.5ZM13.8511 16.4345C13.8218 16.6107 13.6638 16.75 13.4672 16.75V17.75C14.1413 17.75 14.7259 17.2684 14.8375 16.5988L13.8511 16.4345ZM9.16239 16.5988C9.27395 17.2684 9.85863 17.75 10.5328 17.75V16.75C10.3361 16.75 10.1782 16.6107 10.1488 16.4344L9.16239 16.5988Z"/>
    </g>
</symbol><symbol viewBox="0 -0.5 25 25" id="cross" xmlns="http://www.w3.org/2000/svg">
    <g id="cSVGRepo_bgCarrier" stroke-width="0"/>
    <g id="cSVGRepo_tracerCarrier" stroke-linecap="round" stroke-linejoin="round"/>
    <g id="cSVGRepo_iconCarrier">
        <path d="M6.96967 16.4697C6.67678 16.7626 6.67678 17.2374 6.96967 17.5303C7.26256 17.8232 7.73744 17.8232 8.03033 17.5303L6.96967 16.4697ZM13.0303 12.5303C13.3232 12.2374 13.3232 11.7626 13.0303 11.4697C12.7374 11.1768 12.2626 11.1768 11.9697 11.4697L13.0303 12.5303ZM11.9697 11.4697C11.6768 11.7626 11.6768 12.2374 11.9697 12.5303C12.2626 12.8232 12.7374 12.8232 13.0303 12.5303L11.9697 11.4697ZM18.0303 7.53033C18.3232 7.23744 18.3232 6.76256 18.0303 6.46967C17.7374 6.17678 17.2626 6.17678 16.9697 6.46967L18.0303 7.53033ZM13.0303 11.4697C12.7374 11.1768 12.2626 11.1768 11.9697 11.4697C11.6768 11.7626 11.6768 12.2374 11.9697 12.5303L13.0303 11.4697ZM16.9697 17.5303C17.2626 17.8232 17.7374 17.8232 18.0303 17.5303C18.3232 17.2374 18.3232 16.7626 18.0303 16.4697L16.9697 17.5303ZM11.9697 12.5303C12.2626 12.8232 12.7374 12.8232 13.0303 12.5303C13.3232 12.2374 13.3232 11.7626 13.0303 11.4697L11.9697 12.5303ZM8.03033 6.46967C7.73744 6.17678 7.26256 6.17678 6.96967 6.46967C6.67678 6.76256 6.67678 7.23744 6.96967 7.53033L8.03033 6.46967ZM8.03033 17.5303L13.0303 12.5303L11.9697 11.4697L6.96967 16.4697L8.03033 17.5303ZM13.0303 12.5303L18.0303 7.53033L16.9697 6.46967L11.9697 11.4697L13.0303 12.5303ZM11.9697 12.5303L16.9697 17.5303L18.0303 16.4697L13.0303 11.4697L11.9697 12.5303ZM13.0303 11.4697L8.03033 6.46967L6.96967 7.53033L11.9697 12.5303L13.0303 11.4697Z"/>
    </g>
</symbol><symbol viewBox="0 0 24 24" id="cup" xmlns="http://www.w3.org/2000/svg">
    <g id="dSVGRepo_bgCarrier" stroke-width="0"/>
    <g id="dSVGRepo_tracerCarrier" stroke-linecap="round" stroke-linejoin="round"/>
    <g id="dSVGRepo_iconCarrier">
        <path d="M21.9999 8.16234L21.9999 8.23487C21.9999 9.09561 21.9999 9.52598 21.7927 9.8781C21.5855 10.2302 21.2093 10.4392 20.4569 10.8572L19.6636 11.298C20.2102 9.44984 20.3926 7.46414 20.4601 5.76597C20.4629 5.69316 20.4662 5.61945 20.4695 5.54497L20.4718 5.49279C21.1231 5.71896 21.4887 5.88758 21.7168 6.20408C22 6.59692 22 7.11873 21.9999 8.16234Z"/>
        <path d="M2 8.16234L2 8.23487C2.00003 9.09561 2.00004 9.52598 2.20723 9.8781C2.41442 10.2302 2.79063 10.4392 3.54305 10.8572L4.33681 11.2982C3.79007 9.45001 3.60767 7.46422 3.54025 5.76597C3.53736 5.69316 3.5341 5.61945 3.53081 5.54497L3.5285 5.49266C2.87701 5.7189 2.51126 5.88752 2.2831 6.20408C1.99996 6.59692 1.99997 7.11873 2 8.16234Z"/>
        <path fill-rule="evenodd" clip-rule="evenodd" d="M16.3771 2.34674C15.2531 2.15709 13.7837 2 12.0002 2C10.2166 2 8.74724 2.15709 7.62318 2.34674C6.48445 2.53887 5.91508 2.63494 5.43937 3.22083C4.96365 3.80673 4.98879 4.43998 5.03907 5.70647C5.21169 10.0544 6.14996 15.4851 11.25 15.9657V19.5H9.8198C9.34312 19.5 8.93271 19.8365 8.83922 20.3039L8.65 21.25H6C5.58579 21.25 5.25 21.5858 5.25 22C5.25 22.4142 5.58579 22.75 6 22.75H18C18.4142 22.75 18.75 22.4142 18.75 22C18.75 21.5858 18.4142 21.25 18 21.25H15.35L15.1608 20.3039C15.0673 19.8365 14.6569 19.5 14.1802 19.5H12.75V15.9657C17.8503 15.4853 18.7886 10.0545 18.9612 5.70647C19.0115 4.43998 19.0367 3.80673 18.5609 3.22083C18.0852 2.63494 17.5159 2.53887 16.3771 2.34674Z"/>
    </g>
</symbol><symbol id="envelope" viewBox="0 0 326.7 326.7" xml:space="preserve" xmlns="http://www.w3.org/2000/svg">
    <g>
        <g>
            <path d="M326.7,71.769H0v183.162h326.7V71.769z M299.727,82.569l-87.007,82.982c-13.511,12.889-31.45,19.986-50.509,19.986    c-19.375,0-37.526-7.298-51.115-20.545L26.552,82.569H299.727z M315.9,244.131H10.8V82.569h0.274l92.475,90.154    c16.137,15.736,37.391,23.615,58.656,23.615c20.941,0,41.898-7.646,57.96-22.972l95.207-90.798h0.527V244.131z"/>
        </g>
    </g>
</symbol><symbol viewBox="0 0 24 24" id="headphones" xmlns="http://www.w3.org/2000/svg">
    <path d="M3 11.3C3 6.32949 7.02944 2.30005 12 2.30005C16.9706 2.30005 21 6.32949 21 11.3M3 11.3H5C6.10457 11.3 7 12.1955 7 13.3V15.3C7 16.4046 6.10457 17.3 5 17.3M3 11.3V16.3C3 16.8523 3.44772 17.3 4 17.3H5M21 11.3H19C17.8954 11.3 17 12.1955 17 13.3V15.3C17 16.4046 17.8954 17.3 19 17.3H20C20.5523 17.3 21 16.8523 21 16.3V11.3ZM5 17.3V18.3C5 19.4046 5.89543 20.3 7 20.3H9M9 20.3C9 21.1285 9.67157 21.8 10.5 21.8H11.5C12.3284 21.8 13 21.1285 13 20.3C13 19.4716 12.3284 18.8 11.5 18.8H10.5C9.67157 18.8 9 19.4716 9 20.3Z" stroke-width="2" stroke-linecap="round"/>
</symbol><symbol id="tick-box" viewBox="0 0 424.113 424.113" xml:space="preserve" xmlns="http://www.w3.org/2000/svg">
    <g>
        <g>
            <path d="M376.955,120.307c-6.514,0-11.807,5.286-11.807,11.807v215.593c0,22.785-18.539,41.322-41.322,41.322H64.936    c-22.781,0-41.322-18.537-41.322-41.322V88.816c0-22.786,18.541-41.323,41.322-41.323h258.89c6.525,0,11.809-5.287,11.809-11.807    c0-6.521-5.281-11.807-11.809-11.807H64.936C29.137,23.88,0,53.01,0,88.815v258.891c0,35.806,29.137,64.936,64.936,64.936h258.89    c35.812,0,64.938-29.13,64.938-64.936V132.113C388.762,125.594,383.482,120.307,376.955,120.307z"/>
            <path d="M420.654,14.931c-4.611-4.612-12.096-4.612-16.693,0l-237.24,237.228l-59.297-59.291c-4.611-4.611-12.084-4.611-16.695,0    c-4.611,4.612-4.611,12.086,0,16.695l67.656,67.639c2.307,2.308,5.328,3.459,8.348,3.459c3.021,0,6.043-1.151,8.348-3.459    c0-0.006,0-0.012,0.012-0.018L420.654,31.625C425.266,27.017,425.266,19.539,420.654,14.931z"/>
        </g>
    </g>
</symbol></svg>