<?xml version="1.0" encoding="utf-8"?><!DOCTYPE svg PUBLIC "-//W3C//DTD SVG 1.1//EN" "http://www.w3.org/Graphics/SVG/1.1/DTD/svg11.dtd"><svg viewBox="0 0 800 800" xmlns="http://www.w3.org/2000/svg" xmlns:xlink="http://www.w3.org/1999/xlink"><style>:root>svg{display:none}:root>svg:target{display:block}</style><svg viewBox="0 0 16 16" fill="none" stroke="#fff" id="aside-star" xmlns="http://www.w3.org/2000/svg">
    <path d="M9 0H7L5.513 4.577H.7L.083 6.479l3.893 2.829-1.487 4.576 1.618 1.176L8 12.23l3.893 2.829 1.618-1.176-1.487-4.576 3.894-2.83-.619-1.901h-4.812L9 0Z" fill="#fff"/>
</svg><svg viewBox="0 0 24 24" fill="none" id="bulp" xmlns="http://www.w3.org/2000/svg">
    <path d="m14.627 14.82-.244-.437.244.437Zm-4.971 1.697-.494.082.494-.082Zm4.688 0-.493-.082.493.082Zm3.784-2.686a.5.5 0 1 0-.701.713l.701-.713Zm.188 1.588a.5.5 0 1 0 .701-.713l-.701.713Zm.795-5.669a.5.5 0 0 0 0 1v-1Zm.889 1a.5.5 0 0 0 0-1v1Zm-2.128-5.231a.5.5 0 1 0 .701.712l-.701-.712Zm1.59-.163a.5.5 0 1 0-.702-.712l.702.712Zm-14.035.875a.5.5 0 0 0 .702-.712l-.702.712ZM5.24 4.644a.5.5 0 0 0-.702.712l.702-.712Zm-.351 6.106a.5.5 0 0 0 0-1v1ZM4 9.75a.5.5 0 0 0 0 1v-1Zm2.573 4.794a.5.5 0 1 0-.702-.713l.702.713Zm-1.59.162a.5.5 0 1 0 .701.713l-.701-.713Zm7.843-6.758a.5.5 0 1 0-.763-.646l.763.646Zm-2.604 2.302-.381-.323a.5.5 0 0 0 .381.823v-.5Zm3.556 0 .381.323a.5.5 0 0 0-.381-.823v.5Zm-2.604 2.302a.5.5 0 0 0 .763.646l-.763-.646Zm-.507 5.948a.5.5 0 1 0 0 1v-1Zm2.666 1a.5.5 0 1 0 0-1v1Zm-6.166-9.25C7.167 7.634 9.323 5.5 12 5.5v-1c-3.214 0-5.833 2.567-5.833 5.75h1ZM12 5.5c2.677 0 4.833 2.134 4.833 4.75h1c0-3.183-2.619-5.75-5.833-5.75v1Zm4.833 4.75c0 1.768-.983 3.315-2.45 4.133l.488.874c1.765-.986 2.962-2.857 2.962-5.007h-1Zm-2.45 4.133A4.875 4.875 0 0 1 12 15v1c1.042 0 2.023-.27 2.87-.743l-.487-.874ZM12 15c-.868 0-1.68-.224-2.383-.617l-.488.874A5.875 5.875 0 0 0 12 16v-1Zm-2.383-.617c-1.467-.818-2.45-2.365-2.45-4.133h-1c0 2.15 1.197 4.021 2.962 5.007l.488-.874Zm.532 2.051-.283-1.696-.986.164.282 1.697.987-.165Zm3.985-1.696-.283 1.697.986.164.283-1.697-.986-.164Zm3.293-.194.889.875.701-.713-.889-.875-.701.713Zm1.684-3.794H20v-1h-.889v1Zm-.538-4.519.889-.875-.702-.712-.889.875.702.712ZM6.129 5.52l-.89-.875-.7.712.888.875.702-.712ZM4.889 9.75H4v1h.889v-1Zm.982 4.081-.888.875.701.713.889-.875-.702-.713Zm6.192-6.53L9.84 9.928l.763.646 2.222-2.625-.763-.646Zm-1.84 3.449h3.555v-1h-3.556v1Zm3.173-.823-2.222 2.625.763.646 2.222-2.625-.763-.646Zm.071 6.823h-2.934v1h2.934v-1Zm-2.8 2.75h2.666v-1h-2.666v1Zm3.184-3.066a.385.385 0 0 1-.384.316v1c.674 0 1.259-.482 1.37-1.151l-.986-.165Zm-4.689.165c.112.67.697 1.151 1.37 1.151v-1a.385.385 0 0 1-.383-.316l-.987.165Z" fill="#ffff"/>
</svg><svg viewBox="0 -0.5 25 25" fill="none" stroke="#fff" id="cross" xmlns="http://www.w3.org/2000/svg">
    <path d="M6.97 16.47a.75.75 0 1 0 1.06 1.06l-1.06-1.06Zm6.06-3.94a.75.75 0 1 0-1.06-1.06l1.06 1.06Zm-1.06-1.06a.75.75 0 1 0 1.06 1.06l-1.06-1.06Zm6.06-3.94a.75.75 0 0 0-1.06-1.06l1.06 1.06Zm-5 3.94a.75.75 0 1 0-1.06 1.06l1.06-1.06Zm3.94 6.06a.75.75 0 1 0 1.06-1.06l-1.06 1.06Zm-5-5a.75.75 0 1 0 1.06-1.06l-1.06 1.06ZM8.03 6.47a.75.75 0 0 0-1.06 1.06l1.06-1.06Zm0 11.06 5-5-1.06-1.06-5 5 1.06 1.06Zm5-5 5-5-1.06-1.06-5 5 1.06 1.06Zm-1.06 0 5 5 1.06-1.06-5-5-1.06 1.06Zm1.06-1.06-5-5-1.06 1.06 5 5 1.06-1.06Z" fill="#fff"/>
</svg><svg viewBox="0 0 24 24" fill="none" id="cup" xmlns="http://www.w3.org/2000/svg">
    <g fill="#FFFF">
        <path d="M22 8.162v.073c0 .86 0 1.291-.207 1.643-.207.352-.584.561-1.336.98l-.793.44c.546-1.848.729-3.834.796-5.532l.01-.221.002-.052c.651.226 1.017.395 1.245.711.283.393.283.915.283 1.958ZM2 8.162v.073c0 .86 0 1.291.207 1.643.207.352.584.561 1.336.98l.794.44c-.547-1.848-.73-3.834-.797-5.532l-.01-.221-.001-.052c-.652.226-1.018.395-1.246.711C2 6.597 2 7.12 2 8.162Z"/>
        <path fill-rule="evenodd" clip-rule="evenodd" d="M16.377 2.347A26.373 26.373 0 0 0 12 2c-1.783 0-3.253.157-4.377.347-1.139.192-1.708.288-2.184.874-.475.586-.45 1.219-.4 2.485.173 4.348 1.111 9.78 6.211 10.26V19.5H9.82a1 1 0 0 0-.98.804l-.19.946H6a.75.75 0 0 0 0 1.5h12a.75.75 0 0 0 0-1.5h-2.65l-.19-.946a1 1 0 0 0-.98-.804h-1.43v-3.534c5.1-.48 6.039-5.911 6.211-10.26.05-1.266.076-1.9-.4-2.485-.476-.586-1.045-.682-2.184-.874Z"/>
    </g>
</svg><svg viewBox="0 0 326.7 326.7" xml:space="preserve" id="envelope" xmlns="http://www.w3.org/2000/svg">
    <path d="M326.7 71.769H0v183.162h326.7V71.769zm-26.973 10.8-87.007 82.982c-13.511 12.889-31.45 19.986-50.509 19.986-19.375 0-37.526-7.298-51.115-20.545L26.552 82.569h273.175zM315.9 244.131H10.8V82.569h.274l92.475 90.154c16.137 15.736 37.391 23.615 58.656 23.615 20.941 0 41.898-7.646 57.96-22.972l95.207-90.798h.527v161.563z"/>
</svg><svg viewBox="0 0 24 24" fill="none" id="headphones" xmlns="http://www.w3.org/2000/svg">
    <path d="M3 11.3a9 9 0 0 1 18 0m-18 0h2a2 2 0 0 1 2 2v2a2 2 0 0 1-2 2m-2-6v5a1 1 0 0 0 1 1h1m16-6h-2a2 2 0 0 0-2 2v2a2 2 0 0 0 2 2h1a1 1 0 0 0 1-1v-5Zm-16 6v1a2 2 0 0 0 2 2h2m0 0a1.5 1.5 0 0 0 1.5 1.5h1a1.5 1.5 0 1 0 0-3h-1A1.5 1.5 0 0 0 9 20.3Z" stroke="#000" stroke-width="2" stroke-linecap="round"/>
</svg><svg viewBox="0 0 424.113 424.113" xml:space="preserve" id="tick-box" xmlns="http://www.w3.org/2000/svg">
    <path d="M376.955 120.307c-6.514 0-11.807 5.286-11.807 11.807v215.593c0 22.785-18.539 41.322-41.322 41.322H64.936c-22.781 0-41.322-18.537-41.322-41.322V88.816c0-22.786 18.541-41.323 41.322-41.323h258.89c6.525 0 11.809-5.287 11.809-11.807 0-6.521-5.281-11.807-11.809-11.807H64.936C29.137 23.88 0 53.01 0 88.815v258.891c0 35.806 29.137 64.936 64.936 64.936h258.89c35.812 0 64.938-29.13 64.938-64.936V132.113c-.002-6.519-5.282-11.806-11.809-11.806z"/>
    <path d="M420.654 14.931c-4.611-4.612-12.096-4.612-16.693 0l-237.24 237.228-59.297-59.291c-4.611-4.611-12.084-4.611-16.695 0-4.611 4.612-4.611 12.086 0 16.695l67.656 67.639a11.764 11.764 0 0 0 8.348 3.459c3.021 0 6.043-1.151 8.348-3.459 0-.006 0-.012.012-.018L420.654 31.625c4.612-4.608 4.612-12.086 0-16.694z"/>
</svg></svg>